0
SECTION
2
HEADER
9
$INSUNITS
70
4
9
$ACADVER
1
AC1014
9
$HANDSEED
5
FFFF
0
ENDSEC
0
SECTION
2
TABLES
0
TABLE
2
VPORT
5
8
100
AcDbSymbolTable
0
ENDTAB
0
TABLE
2
LTYPE
5
5
100
AcDbSymbolTable
0
LTYPE
5
14
100
AcDbSymbolTableRecord
100
AcDbLinetypeTableRecord
2
BYBLOCK
70
0
0
LTYPE
5
15
100
AcDbSymbolTableRecord
100
AcDbLinetypeTableRecord
2
BYLAYER
70
0
0
LTYPE
5
16
100
AcDbSymbolTableRecord
100
AcDbLinetypeTableRecord
2
DASHED
70
0
3
Dashed __ __ __ __ __ __ __ __ __ __ __ __ __ _
72
65
73
2
40
0.75
49
0.5
74
0
49
-0.25
74
0
0
ENDTAB
0
TABLE
2
LAYER
5
2
100
AcDbSymbolTable
70
2
0
LAYER
5
50
100
AcDbSymbolTableRecord
100
AcDbLayerTableRecord
2
0
70
0
62
7
6
CONTINUOUS
0
ENDTAB
0
TABLE
2
STYLE
5
3
100
AcDbSymbolTable
70
1
0
STYLE
5
11
100
AcDbSymbolTableRecord
100
AcDbTextStyleTableRecord
2
STANDARD
70
0
0
ENDTAB
0
TABLE
2
VIEW
5
6
100
AcDbSymbolTable
70
0
0
ENDTAB
0
TABLE
2
UCS
5
7
100
AcDbSymbolTable
70
0
0
ENDTAB
0
TABLE
2
APPID
5
9
100
AcDbSymbolTable
70
2
0
APPID
5
12
100
AcDbSymbolTableRecord
100
AcDbRegAppTableRecord
2
ACAD
70
0
0
ENDTAB
0
TABLE
2
DIMSTYLE
5
A
100
AcDbSymbolTable
70
1
0
ENDTAB
0
TABLE
2
BLOCK_RECORD
5
1
100
AcDbSymbolTable
70
1
0
BLOCK_RECORD
5
1F
100
AcDbSymbolTableRecord
100
AcDbBlockTableRecord
2
*MODEL_SPACE
0
BLOCK_RECORD
5
1B
100
AcDbSymbolTableRecord
100
AcDbBlockTableRecord
2
*PAPER_SPACE
0
ENDTAB
0
ENDSEC
0
SECTION
2
BLOCKS
0
BLOCK
5
20
100
AcDbEntity
100
AcDbBlockBegin
2
*MODEL_SPACE
0
ENDBLK
5
21
100
AcDbEntity
100
AcDbBlockEnd
0
BLOCK
5
1C
100
AcDbEntity
100
AcDbBlockBegin
2
*PAPER_SPACE
0
ENDBLK
5
1D
100
AcDbEntity
100
AcDbBlockEnd
0
ENDSEC
0
SECTION
2
ENTITIES
0
LWPOLYLINE
5
100
100
AcDbEntity
8
0
100
AcDbPolyline
90
8
70
1
43
0.0
10
-14.999999999999998
20
-10
10
-15
20
10
42
-0.41421356237309503
10
-10
20
15
10
10
20
15
42
-0.41421356237309542
10
15
20
10.000000000000002
10
15
20
-10.000000000000002
42
-0.41421356237309531
10
10.000000000000002
20
-15
10
-9.9999999999999982
20
-15
42
-0.41421356237309503
0
LWPOLYLINE
5
101
100
AcDbEntity
8
0
100
AcDbPolyline
90
4
70
1
43
0.0
10
0.4317119634239272
20
-4.6609880619761244
10
1.231711963423928
20
-4.6609880619761244
10
1.231711963423928
20
-5.3609880619761245
10
0.4317119634239272
20
-5.3609880619761245
0
LWPOLYLINE
5
102
100
AcDbEntity
8
0
100
AcDbPolyline
90
4
70
1
43
0.0
10
1.231711963423928
20
-6.7610388620777249
10
0.4317119634239272
20
-6.7610388620777249
10
0.4317119634239272
20
-6.0610388620777256
10
1.231711963423928
20
-6.0610388620777256
0
LWPOLYLINE
5
103
100
AcDbEntity
8
0
100
AcDbPolyline
90
4
70
1
43
0.0
10
2.1189039878079758
20
-2.6436347472694948
10
3.5189065278130571
20
-2.6436347472694948
10
3.5189065278130571
20
-5.4436398272796547
10
2.1189039878079758
20
-5.4436398272796547
0
LWPOLYLINE
5
104
100
AcDbEntity
8
0
100
AcDbPolyline
90
4
70
1
43
0.0
10
5.6968516637033275
20
-10.009333248666497
10
2.2968440436880866
20
-10.009333248666497
10
2.2968440436880884
20
-8.3593281686563401
10
5.6968516637033284
20
-8.3593281686563401
0
LWPOLYLINE
5
105
100
AcDbEntity
8
0
100
AcDbPolyline
90
4
70
1
43
0.0
10
10.996861823723648
20
-10.009333248666497
10
7.5968542037084097
20
-10.009333248666497
10
7.5968542037084097
20
-8.3593281686563365
10
10.996861823723648
20
-8.3593281686563401
0
LWPOLYLINE
5
106
100
AcDbEntity
8
0
100
AcDbPolyline
90
4
70
1
43
0.0
10
6.6889116078232167
20
-2.6436347472694948
10
8.088914147828298
20
-2.6436347472694948
10
8.088914147828298
20
-5.4436398272796547
10
6.6889116078232167
20
-5.4436398272796547
0
LWPOLYLINE
5
107
100
AcDbEntity
8
0
100
AcDbPolyline
90
4
70
1
43
0.0
10
11.26262128524257
20
-4.3426085852171701
10
12.737424434848874
20
-4.3426085852171701
10
12.737424434848874
20
-5.8174117348234713
10
11.26262128524257
20
-5.8174117348234713
0
LWPOLYLINE
5
108
100
AcDbEntity
8
0
100
AcDbPolyline
90
4
70
1
43
0.0
10
9.1124142748285539
20
-4.3146342392684787
10
9.8124168148336306
20
-4.3146342392684787
10
9.8124168148336306
20
-5.0146367792735589
10
9.1124142748285539
20
-5.0146367792735589
0
LWPOLYLINE
5
109
100
AcDbEntity
8
0
100
AcDbPolyline
90
4
70
1
43
0.0
10
9.1124142748285539
20
-2.0646316992634
10
9.8124168148336306
20
-2.0646316992634
10
9.8124168148336306
20
-2.7646342392684788
10
9.1124142748285539
20
-2.7646342392684788
0
LWPOLYLINE
5
110
100
AcDbEntity
8
0
100
AcDbPolyline
90
10
70
1
43
0.0
10
-0.12399849129968449
20
-2.5234340868681739
10
0.6345875915741872
20
-2.5234340868681739
10
0.65530353060706115
20
-2.5027286688810251
10
0.65530353060706137
20
-1.7441574650122287
10
0.63458015246300659
20
-1.7234340868681741
10
0.42732537465074938
20
-1.7234340868681741
10
0.097327914655829295
20
-1.7234340868681741
10
-0.12399105140578988
20
-1.7234340868681741
10
-0.14469646939293876
20
-1.7441500259010481
10
-0.14469646939293884
20
-2.5027361087749194
0
LWPOLYLINE
5
111
100
AcDbEntity
8
0
100
AcDbPolyline
90
10
70
1
43
0.0
10
0.63463095256460678
20
-0.13341630683261366
10
-0.12395513030926453
20
-0.13341630683261366
10
-0.14467106934213869
20
-0.1541217248197625
10
-0.14467106934213875
20
-0.91269292868855889
10
-0.12394769119808383
20
-0.9334163068326139
10
0.08330708661417327
20
-0.9334163068326139
10
0.41330454660909344
20
-0.9334163068326139
10
0.63462351267071249
20
-0.9334163068326139
10
0.65532893065786135
20
-0.91270036779973973
10
0.65532893065786146
20
-0.15411428492586809
0
LWPOLYLINE
5
112
100
AcDbEntity
8
0
100
AcDbPolyline
90
4
70
1
43
0.0
10
2.403902717805436
20
0.23637160274320512
10
2.403902717805436
20
6.0363843027686057
10
7.8039154178308356
20
6.0363843027686057
10
7.8039154178308356
20
0.23637160274320487
0
LWPOLYLINE
5
113
100
AcDbEntity
8
0
100
AcDbPolyline
90
4
70
1
43
0.0
10
-6.2800711201422423
20
-2.0799339598679198
10
-6.2800711201422423
20
2.0800863601727206
10
-3.7200762001524006
20
2.0800863601727206
10
-3.7200762001524006
20
-2.0799339598679198
0
LWPOLYLINE
5
114
100
AcDbEntity
8
0
100
AcDbPolyline
90
4
70
1
43
0.0
10
7.1571729743459507
20
6.9051308102616211
10
6.4571729743459514
20
6.9051308102616211
10
6.4571729743459514
20
7.7051308102616236
10
7.1571729743459507
20
7.7051308102616236
0
LWPOLYLINE
5
115
100
AcDbEntity
8
0
100
AcDbPolyline
90
4
70
1
43
0.0
10
5.0571221742443493
20
6.9051308102616211
10
5.0571221742443493
20
7.7051308102616236
10
5.7571221742443504
20
7.7051308102616236
10
5.7571221742443504
20
6.9051308102616211
0
LWPOLYLINE
5
116
100
AcDbEntity
8
0
100
AcDbPolyline
90
4
70
1
43
0.0
10
5.8573152146304297
20
9.5754813309626634
10
6.5573152146304299
20
9.5754813309626634
10
6.5573152146304299
20
8.7754813309626627
10
5.8573152146304297
20
8.7754813309626627
0
LWPOLYLINE
5
117
100
AcDbEntity
8
0
100
AcDbPolyline
90
4
70
1
43
0.0
10
4.4572644145288294
20
8.7754813309626627
10
4.4572644145288294
20
9.5754813309626634
10
5.1572644145288287
20
9.5754813309626634
10
5.1572644145288287
20
8.7754813309626627
0
LWPOLYLINE
5
118
100
AcDbEntity
8
0
100
AcDbPolyline
90
4
70
1
43
0.0
10
-1.9268884937769881
20
6.921143002286005
10
-1.1268884937769874
20
6.921143002286005
10
-1.1268884937769874
20
6.2211430022860048
10
-1.9268884937769881
20
6.2211430022860048
0
LWPOLYLINE
5
119
100
AcDbEntity
8
0
100
AcDbPolyline
90
4
70
1
43
0.0
10
-1.9268884937769881
20
8.3211938023876044
10
-1.1268884937769874
20
8.3211938023876044
10
-1.1268884937769874
20
7.6211938023876069
10
-1.9268884937769881
20
7.6211938023876069
0
LWPOLYLINE
5
120
100
AcDbEntity
8
0
100
AcDbPolyline
90
4
70
1
43
0.0
10
-5.653177546355094
20
5.7425374650749328
10
-4.8531775463550932
20
5.7425374650749328
10
-4.8531775463550932
20
5.0425374650749308
10
-5.653177546355094
20
5.0425374650749308
0
LWPOLYLINE
5
121
100
AcDbEntity
8
0
100
AcDbPolyline
90
4
70
1
43
0.0
10
-5.653177546355094
20
7.1425882651765331
10
-4.8531775463550932
20
7.1425882651765331
10
-4.8531775463550932
20
6.4425882651765329
10
-5.653177546355094
20
6.4425882651765329
0
LWPOLYLINE
5
122
100
AcDbEntity
8
0
100
AcDbPolyline
90
4
70
1
43
0.0
10
-9.649994919989842
20
-5.1576149352298728
10
-8.949994919989841
20
-5.1576149352298728
10
-8.949994919989841
20
-5.9576149352298726
10
-9.649994919989842
20
-5.9576149352298726
0
LWPOLYLINE
5
123
100
AcDbEntity
8
0
100
AcDbPolyline
90
4
70
1
43
0.0
10
-11.050045720091443
20
-5.1576149352298728
10
-10.350045720091439
20
-5.1576149352298728
10
-10.350045720091439
20
-5.9576149352298726
10
-11.050045720091443
20
-5.9576149352298726
0
LWPOLYLINE
5
124
100
AcDbEntity
8
0
100
AcDbPolyline
90
4
70
1
43
0.0
10
-9.649994919989842
20
-3.4076123952247919
10
-8.949994919989841
20
-3.4076123952247919
10
-8.949994919989841
20
-4.2076123952247917
10
-9.649994919989842
20
-4.2076123952247917
0
LWPOLYLINE
5
125
100
AcDbEntity
8
0
100
AcDbPolyline
90
4
70
1
43
0.0
10
-11.050045720091443
20
-3.4076123952247919
10
-10.350045720091439
20
-3.4076123952247919
10
-10.350045720091439
20
-4.2076123952247917
10
-11.050045720091443
20
-4.2076123952247917
0
LWPOLYLINE
5
126
100
AcDbEntity
8
0
100
AcDbPolyline
90
4
70
1
43
0.0
10
-9.649994919989842
20
-1.0342189484378974
10
-8.949994919989841
20
-1.0342189484378974
10
-8.949994919989841
20
-1.8342189484378975
10
-9.649994919989842
20
-1.8342189484378975
0
LWPOLYLINE
5
127
100
AcDbEntity
8
0
100
AcDbPolyline
90
4
70
1
43
0.0
10
-11.050045720091443
20
-1.0342189484378972
10
-10.350045720091439
20
-1.0342189484378972
10
-10.350045720091439
20
-1.8342189484378975
10
-11.050045720091443
20
-1.834218948437897
0
LWPOLYLINE
5
128
100
AcDbEntity
8
0
100
AcDbPolyline
90
4
70
1
43
0.0
10
-11.24999745999493
20
0.64999999999999991
10
-10.54999745999492
20
0.64999999999999991
10
-10.54999745999492
20
-0.14999999999999999
10
-11.24999745999493
20
-0.15000000000000002
0
LWPOLYLINE
5
129
100
AcDbEntity
8
0
100
AcDbPolyline
90
4
70
1
43
0.0
10
-12.650048260096529
20
0.65000000000000013
10
-11.950048260096525
20
0.65000000000000002
10
-11.950048260096525
20
-0.15000000000000013
10
-12.650048260096529
20
-0.15000000000000002
0
LWPOLYLINE
5
130
100
AcDbEntity
8
0
100
AcDbPolyline
90
4
70
1
43
0.0
10
-9.6500177800355615
20
0.89997713995428175
10
-8.8500177800355626
20
0.89997713995428175
10
-8.8500177800355626
20
0.19997713995428004
10
-9.6500177800355615
20
0.19997713995427996
0
LWPOLYLINE
5
131
100
AcDbEntity
8
0
100
AcDbPolyline
90
4
70
1
43
0.0
10
-9.6500177800355615
20
2.3000279400558825
10
-8.8500177800355626
20
2.3000279400558825
10
-8.8500177800355626
20
1.6000279400558803
10
-9.6500177800355615
20
1.6000279400558803
0
LWPOLYLINE
5
132
100
AcDbEntity
8
0
100
AcDbPolyline
90
10
70
1
43
0.0
10
9.1207030581034161
20
-0.94500889001778043
10
9.8792891409772885
20
-0.94500889001778043
10
9.9000050800101604
20
-0.92430347203063212
10
9.9000050800101604
20
-0.16573226816183437
10
9.8792817018661054
20
-0.14500889001778
10
9.672026924053851
20
-0.14500889001778008
10
9.3420294640589301
20
-0.14500889001778008
10
9.1207104979973099
20
-0.14500889001778008
10
9.1000050800101615
20
-0.16572482905065331
10
9.1000050800101615
20
-0.92431091192452652
0
LWPOLYLINE
5
133
100
AcDbEntity
8
0
100
AcDbPolyline
90
10
70
1
43
0.0
10
9.1207538582050169
20
0.64500889001778017
10
9.3280086360172731
20
0.64500889001778017
10
9.6580060960121923
20
0.64500889001778017
10
9.8793250620738142
20
0.64500889001778017
10
9.9000304800609626
20
0.66572482905065355
10
9.9000304800609626
20
1.4243109119245263
10
9.8793325019677081
20
1.4450088900177807
10
9.1207464190938357
20
1.4450088900177804
10
9.1000304800609619
20
1.4243034720306313
10
9.1000304800609619
20
0.66573226816183484
0
LWPOLYLINE
5
134
100
AcDbEntity
8
0
100
AcDbPolyline
90
10
70
1
43
0.0
10
9.9000050800101604
20
3.5757066879896895
10
9.9000050800101604
20
4.3342778918584868
10
9.8792817018661054
20
4.3550012700025409
10
9.672026924053851
20
4.3550012700025409
10
9.3420294640589301
20
4.3550012700025409
10
9.1207104979973117
20
4.3550012700025409
10
9.1000050800101615
20
4.3342853309696663
10
9.1000050800101615
20
3.5756992480957948
10
9.1207030581034161
20
3.5550012700025411
10
9.8792891409772885
20
3.5550012700025411
0
LWPOLYLINE
5
135
100
AcDbEntity
8
0
100
AcDbPolyline
90
10
70
1
43
0.0
10
9.8793250620738142
20
5.1450190500381021
10
9.9000304800609626
20
5.1657349890709749
10
9.9000304800609626
20
5.9243210719448482
10
9.8793325019677081
20
5.9450190500381019
10
9.1207464190938339
20
5.9450190500381019
10
9.1000304800609619
20
5.9243136320509535
10
9.1000304800609619
20
5.1657424281821562
10
9.1207538582050169
20
5.1450190500381021
10
9.3280086360172731
20
5.1450190500381021
10
9.6580060960121923
20
5.1450190500381021
0
LWPOLYLINE
5
136
100
AcDbEntity
8
0
100
AcDbPolyline
90
10
70
1
43
0.0
10
0.5000127000254001
20
9.5407438790887564
10
0.50001270002539999
20
10.299329961962629
10
0.47931472193214464
20
10.320027940055885
10
-0.27927136094172533
20
10.320027940055885
10
-0.29998729997460027
20
10.299322522068735
10
-0.2999872999746
20
9.5407513181999377
10
-0.27926392183054527
20
9.5200279400558845
10
-0.07200914401828809
20
9.5200279400558845
10
0.25798831597663208
20
9.5200279400558845
10
0.47930728203825135
20
9.5200279400558845
0
LWPOLYLINE
5
137
100
AcDbEntity
8
0
100
AcDbPolyline
90
10
70
1
43
0.0
10
1.7579908559817126
20
9.5200279400558845
10
1.9793098220433327
20
9.5200279400558845
10
2.0000152400304798
20
9.5407438790887547
10
2.0000152400304803
20
10.299329961962629
10
1.9793172619372248
20
10.320027940055885
10
1.2207311790633548
20
10.320027940055885
10
1.20001524003048
20
10.299322522068735
10
1.2000152400304804
20
9.5407513181999377
10
1.2207386181745352
20
9.5200279400558845
10
1.4279933959867925
20
9.5200279400558845
0
LWPOLYLINE
5
138
100
AcDbEntity
8
0
100
AcDbPolyline
90
10
70
1
43
0.0
10
3.2653441706883424
20
9.5101219202438436
10
3.4866631367499612
20
9.5101219202438436
10
3.507368554737111
20
9.5308378592767191
10
3.5073685547371101
20
10.289423942150588
10
3.486670576643855
20
10.310121920243844
10
2.7280844937699844
20
10.310121920243844
10
2.7073685547371094
20
10.289416502256694
10
2.7073685547371102
20
9.5308452983878986
10
2.7280919328811652
20
9.5101219202438436
10
2.9353467106934223
20
9.5101219202438436
0
LWPOLYLINE
5
139
100
AcDbEntity
8
0
100
AcDbPolyline
90
10
70
1
43
0.0
10
-0.27931472193214457
20
7.9300101600203234
10
0.47927136094172551
20
7.9300101600203234
10
0.49998729997460023
20
7.9507155780074736
10
0.49998729997460012
20
8.7092867818762674
10
0.47926392183054528
20
8.7300101600203224
10
0.27200914401828807
20
8.7300101600203224
10
-0.057988315976631941
20
8.7300101600203224
10
-0.27930728203825128
20
8.7300101600203224
10
-0.30001270002539987
20
8.7092942209874487
10
-0.30001270002540004
20
7.9507081381135789
0
LWPOLYLINE
5
140
100
AcDbEntity
8
0
100
AcDbPolyline
90
10
70
1
43
0.0
10
1.9792739009468061
20
7.9300101600203234
10
1.9999898399796809
20
7.9507155780074736
10
1.9999898399796801
20
8.7092867818762691
10
1.9792664618356266
20
8.7300101600203224
10
1.7720116840233686
20
8.7300101600203224
10
1.4420142240284484
20
8.7300101600203224
10
1.2206952579668289
20
8.7300101600203224
10
1.1999898399796807
20
8.7092942209874487
10
1.1999898399796805
20
7.9507081381135789
10
1.2206878180729359
20
7.9300101600203234
0
LWPOLYLINE
5
141
100
AcDbEntity
8
0
100
AcDbPolyline
90
10
70
1
43
0.0
10
3.5073431546863105
20
7.9408095581954319
10
3.5073431546863105
20
8.6993807620642265
10
3.4866197765422551
20
8.7201041402082815
10
3.2793649987299984
20
8.7201041402082815
10
2.9493675387350784
20
8.7201041402082815
10
2.7280485726734591
20
8.7201041402082815
10
2.7073431546863107
20
8.6993882011754096
10
2.7073431546863103
20
7.9408021183015371
10
2.7280411327795653
20
7.9201041402082826
10
3.4866272156534368
20
7.9201041402082826
0
LWPOLYLINE
5
142
100
AcDbEntity
8
0
100
AcDbPolyline
90
10
70
1
43
0.0
10
-1.2387013539790204
20
5.2259969519939027
10
-1.9972725578478181
20
5.2259969519939027
10
-2.0179959359918724
20
5.2052735738498495
10
-2.0179959359918724
20
4.9980187960375915
10
-2.0179959359918724
20
4.6680213360426714
10
-2.0179959359918724
20
4.4467023699810539
10
-1.9972799969589983
20
4.4259969519939055
10
-1.2386939140851263
20
4.4259969519939055
10
-1.2179959359918717
20
4.4466949300871592
10
-1.2179959359918719
20
5.205281012961029
0
LWPOLYLINE
5
143
100
AcDbEntity
8
0
100
AcDbPolyline
90
10
70
1
43
0.0
10
-2.8080137160274328
20
5.2053169340575582
10
-2.8287296550603056
20
5.2260223520447049
10
-3.5873157379341785
20
5.2260223520447049
10
-3.6080137160274321
20
5.2053243739514512
10
-3.6080137160274321
20
4.4467382910775779
10
-3.5873082980402842
20
4.4260223520447042
10
-2.8287370941714873
20
4.4260223520447042
10
-2.8080137160274328
20
4.4467457301887583
10
-2.8080137160274328
20
4.6540005080010163
10
-2.8080137160274328
20
4.9839979679959363
0
LWPOLYLINE
5
144
100
AcDbEntity
8
0
100
AcDbPolyline
90
4
70
1
43
0.0
10
-2.3252387604775211
20
-2.8500063500127002
10
-2.3252387604775211
20
-2.6500190500381002
10
-2.8752387604775214
20
-2.6500190500381002
10
-2.8752387604775214
20
-2.8500063500127002
0
LWPOLYLINE
5
145
100
AcDbEntity
8
0
100
AcDbPolyline
90
4
70
1
43
0.0
10
-2.3252387604775211
20
-2.1500190500381007
10
-2.8752387604775214
20
-2.1500190500381007
10
-2.8752387604775214
20
-2.3500063500127011
10
-2.3252387604775211
20
-2.3500063500127011
0
LWPOLYLINE
5
146
100
AcDbEntity
8
0
100
AcDbPolyline
90
4
70
1
43
0.0
10
-2.8752387604775214
20
-1.8500063500127004
10
-2.3252387604775211
20
-1.8500063500127004
10
-2.3252387604775211
20
-1.6500190500381002
10
-2.8752387604775214
20
-1.6500190500381002
0
LWPOLYLINE
5
147
100
AcDbEntity
8
0
100
AcDbPolyline
90
4
70
1
43
0.0
10
-2.3252387604775211
20
-1.1500190500381002
10
-2.8752387604775214
20
-1.1500190500381002
10
-2.8752387604775214
20
-1.3500063500127004
10
-2.3252387604775211
20
-1.3500063500127004
0
LWPOLYLINE
5
148
100
AcDbEntity
8
0
100
AcDbPolyline
90
4
70
1
43
0.0
10
-2.8752387604775214
20
-0.8500063500127002
10
-2.3252387604775211
20
-0.8500063500127002
10
-2.3252387604775211
20
-0.65001905003810034
10
-2.8752387604775214
20
-0.65001905003810034
0
LWPOLYLINE
5
149
100
AcDbEntity
8
0
100
AcDbPolyline
90
4
70
1
43
0.0
10
-2.3252387604775211
20
-0.15001905003810012
10
-2.8752387604775214
20
-0.15001905003810012
10
-2.8752387604775214
20
-0.35000635001270014
10
-2.3252387604775211
20
-0.35000635001270014
0
LWPOLYLINE
5
150
100
AcDbEntity
8
0
100
AcDbPolyline
90
4
70
1
43
0.0
10
-2.3252387604775211
20
0.34998094996189999
10
-2.8752387604775214
20
0.34998094996189999
10
-2.8752387604775214
20
0.14999364998730003
10
-2.3252387604775211
20
0.1499936499873
0
LWPOLYLINE
5
151
100
AcDbEntity
8
0
100
AcDbPolyline
90
4
70
1
43
0.0
10
-2.3252387604775211
20
0.84998094996189988
10
-2.8752387604775214
20
0.84998094996189988
10
-2.8752387604775214
20
0.64999364998730003
10
-2.3252387604775211
20
0.64999364998730003
0
LWPOLYLINE
5
152
100
AcDbEntity
8
0
100
AcDbPolyline
90
4
70
1
43
0.0
10
-2.3252387604775211
20
1.3499809499619
10
-2.8752387604775214
20
1.3499809499619
10
-2.8752387604775214
20
1.1499936499873
10
-2.3252387604775211
20
1.1499936499873
0
LWPOLYLINE
5
153
100
AcDbEntity
8
0
100
AcDbPolyline
90
4
70
1
43
0.0
10
-2.8752387604775214
20
1.6499936499873
10
-2.3252387604775211
20
1.6499936499873
10
-2.3252387604775211
20
1.8499809499619
10
-2.8752387604775214
20
1.8499809499619
0
LWPOLYLINE
5
154
100
AcDbEntity
8
0
100
AcDbPolyline
90
4
70
1
43
0.0
10
-2.3252387604775211
20
2.3499809499619011
10
-2.8752387604775214
20
2.3499809499619011
10
-2.8752387604775214
20
2.1499936499873002
10
-2.3252387604775211
20
2.1499936499873002
0
LWPOLYLINE
5
155
100
AcDbEntity
8
0
100
AcDbPolyline
90
4
70
1
43
0.0
10
-2.8752387604775214
20
2.6499936499873007
10
-2.3252387604775211
20
2.6499936499873007
10
-2.3252387604775211
20
2.8499809499618998
10
-2.8752387604775214
20
2.8499809499618998
0
LWPOLYLINE
5
156
100
AcDbEntity
8
0
100
AcDbPolyline
90
4
70
1
43
0.0
10
-3.3502197104394216
20
3.6750000000000007
10
-3.3502197104394216
20
3.1250000000000004
10
-3.1502324104648216
20
3.1250000000000004
10
-3.1502324104648216
20
3.6750000000000007
0
LWPOLYLINE
5
157
100
AcDbEntity
8
0
100
AcDbPolyline
90
4
70
1
43
0.0
10
-3.8502197104394216
20
3.6750000000000007
10
-3.8502197104394216
20
3.1250000000000004
10
-3.6502324104648212
20
3.1250000000000004
10
-3.6502324104648212
20
3.6750000000000007
0
LWPOLYLINE
5
158
100
AcDbEntity
8
0
100
AcDbPolyline
90
4
70
1
43
0.0
10
-4.350219710439422
20
3.6750000000000007
10
-4.350219710439422
20
3.1250000000000004
10
-4.1502324104648221
20
3.1250000000000004
10
-4.1502324104648221
20
3.6750000000000007
0
LWPOLYLINE
5
159
100
AcDbEntity
8
0
100
AcDbPolyline
90
4
70
1
43
0.0
10
-4.850219710439422
20
3.6750000000000007
10
-4.850219710439422
20
3.1250000000000004
10
-4.6502324104648221
20
3.1250000000000004
10
-4.6502324104648221
20
3.6750000000000007
0
LWPOLYLINE
5
160
100
AcDbEntity
8
0
100
AcDbPolyline
90
4
70
1
43
0.0
10
-5.3502197104394211
20
3.6750000000000007
10
-5.3502197104394211
20
3.1250000000000004
10
-5.1502324104648212
20
3.1250000000000004
10
-5.1502324104648212
20
3.6750000000000007
0
LWPOLYLINE
5
161
100
AcDbEntity
8
0
100
AcDbPolyline
90
4
70
1
43
0.0
10
-5.8502197104394229
20
3.6750000000000007
10
-5.8502197104394229
20
3.1250000000000004
10
-5.6502324104648203
20
3.1250000000000004
10
-5.6502324104648203
20
3.6750000000000007
0
LWPOLYLINE
5
162
100
AcDbEntity
8
0
100
AcDbPolyline
90
4
70
1
43
0.0
10
-6.1502324104648221
20
3.1250000000000004
10
-6.1502324104648221
20
3.6750000000000007
10
-6.350219710439422
20
3.6750000000000007
10
-6.350219710439422
20
3.1250000000000004
0
LWPOLYLINE
5
163
100
AcDbEntity
8
0
100
AcDbPolyline
90
4
70
1
43
0.0
10
-6.8502451104902224
20
3.6750000000000007
10
-6.8502451104902224
20
3.1250000000000004
10
-6.6502578105156207
20
3.1250000000000004
10
-6.6502578105156207
20
3.6750000000000007
0
LWPOLYLINE
5
164
100
AcDbEntity
8
0
100
AcDbPolyline
90
4
70
1
43
0.0
10
-3.3502197104394216
20
-3.6750000000000012
10
-3.1502324104648216
20
-3.6750000000000012
10
-3.1502324104648216
20
-3.1250000000000004
10
-3.3502197104394216
20
-3.1250000000000004
0
LWPOLYLINE
5
165
100
AcDbEntity
8
0
100
AcDbPolyline
90
4
70
1
43
0.0
10
-3.6502324104648212
20
-3.6750000000000012
10
-3.6502324104648212
20
-3.1250000000000004
10
-3.8502197104394216
20
-3.1250000000000004
10
-3.8502197104394216
20
-3.6750000000000012
0
LWPOLYLINE
5
166
100
AcDbEntity
8
0
100
AcDbPolyline
90
4
70
1
43
0.0
10
-4.1502324104648221
20
-3.6750000000000012
10
-4.1502324104648221
20
-3.1250000000000004
10
-4.350219710439422
20
-3.1250000000000004
10
-4.350219710439422
20
-3.6750000000000012
0
LWPOLYLINE
5
167
100
AcDbEntity
8
0
100
AcDbPolyline
90
4
70
1
43
0.0
10
-4.6502324104648221
20
-3.1250000000000004
10
-4.850219710439422
20
-3.1250000000000004
10
-4.850219710439422
20
-3.6750000000000012
10
-4.6502324104648221
20
-3.6750000000000012
0
LWPOLYLINE
5
168
100
AcDbEntity
8
0
100
AcDbPolyline
90
4
70
1
43
0.0
10
-5.1502324104648212
20
-3.6750000000000012
10
-5.1502324104648212
20
-3.1250000000000004
10
-5.3502197104394211
20
-3.1250000000000004
10
-5.3502197104394211
20
-3.6750000000000012
0
LWPOLYLINE
5
169
100
AcDbEntity
8
0
100
AcDbPolyline
90
4
70
1
43
0.0
10
-5.8502197104394229
20
-3.6750000000000012
10
-5.6502324104648203
20
-3.6750000000000012
10
-5.6502324104648203
20
-3.1250000000000004
10
-5.8502197104394229
20
-3.1250000000000004
0
LWPOLYLINE
5
170
100
AcDbEntity
8
0
100
AcDbPolyline
90
4
70
1
43
0.0
10
-6.350219710439422
20
-3.1250000000000004
10
-6.350219710439422
20
-3.6750000000000012
10
-6.1502324104648221
20
-3.6750000000000012
10
-6.1502324104648221
20
-3.1250000000000004
0
LWPOLYLINE
5
171
100
AcDbEntity
8
0
100
AcDbPolyline
90
4
70
1
43
0.0
10
-6.8502451104902224
20
-3.1250000000000004
10
-6.8502451104902224
20
-3.6750000000000012
10
-6.6502578105156207
20
-3.6750000000000012
10
-6.6502578105156207
20
-3.1250000000000004
0
LWPOLYLINE
5
172
100
AcDbEntity
8
0
100
AcDbPolyline
90
4
70
1
43
0.0
10
-7.675238760477523
20
-2.8500063500127002
10
-7.1252387604775222
20
-2.8500063500127002
10
-7.1252387604775222
20
-2.6500190500381002
10
-7.675238760477523
20
-2.6500190500381002
0
LWPOLYLINE
5
173
100
AcDbEntity
8
0
100
AcDbPolyline
90
4
70
1
43
0.0
10
-7.1252387604775222
20
-2.1500190500381007
10
-7.675238760477523
20
-2.1500190500381007
10
-7.675238760477523
20
-2.3500063500127011
10
-7.1252387604775222
20
-2.3500063500127011
0
LWPOLYLINE
5
174
100
AcDbEntity
8
0
100
AcDbPolyline
90
4
70
1
43
0.0
10
-7.1252387604775222
20
-1.6500190500381002
10
-7.675238760477523
20
-1.6500190500381002
10
-7.675238760477523
20
-1.8500063500127004
10
-7.1252387604775222
20
-1.8500063500127004
0
LWPOLYLINE
5
175
100
AcDbEntity
8
0
100
AcDbPolyline
90
4
70
1
43
0.0
10
-7.1252387604775222
20
-1.1500190500381002
10
-7.675238760477523
20
-1.1500190500381002
10
-7.675238760477523
20
-1.3500063500127004
10
-7.1252387604775222
20
-1.3500063500127004
0
LWPOLYLINE
5
176
100
AcDbEntity
8
0
100
AcDbPolyline
90
4
70
1
43
0.0
10
-7.675238760477523
20
-0.8500063500127002
10
-7.1252387604775222
20
-0.8500063500127002
10
-7.1252387604775222
20
-0.65001905003810034
10
-7.675238760477523
20
-0.65001905003810034
0
LWPOLYLINE
5
177
100
AcDbEntity
8
0
100
AcDbPolyline
90
4
70
1
43
0.0
10
-7.1252387604775222
20
2.8499809499618998
10
-7.675238760477523
20
2.8499809499618998
10
-7.675238760477523
20
2.6499936499873007
10
-7.1252387604775222
20
2.6499936499873007
0
LWPOLYLINE
5
178
100
AcDbEntity
8
0
100
AcDbPolyline
90
4
70
1
43
0.0
10
-7.675238760477523
20
2.1499936499873002
10
-7.1252387604775222
20
2.1499936499873002
10
-7.1252387604775222
20
2.3499809499619011
10
-7.675238760477523
20
2.3499809499619011
0
LWPOLYLINE
5
179
100
AcDbEntity
8
0
100
AcDbPolyline
90
4
70
1
43
0.0
10
-7.675238760477523
20
1.6499936499873
10
-7.1252387604775222
20
1.6499936499873
10
-7.1252387604775222
20
1.8499809499619
10
-7.675238760477523
20
1.8499809499619
0
LWPOLYLINE
5
180
100
AcDbEntity
8
0
100
AcDbPolyline
90
4
70
1
43
0.0
10
-7.1252387604775222
20
1.3499809499619
10
-7.675238760477523
20
1.3499809499619
10
-7.675238760477523
20
1.1499936499873
10
-7.1252387604775222
20
1.1499936499873
0
LWPOLYLINE
5
181
100
AcDbEntity
8
0
100
AcDbPolyline
90
4
70
1
43
0.0
10
-7.675238760477523
20
0.64999364998730003
10
-7.1252387604775222
20
0.64999364998730003
10
-7.1252387604775222
20
0.84998094996189988
10
-7.675238760477523
20
0.84998094996189988
0
LWPOLYLINE
5
182
100
AcDbEntity
8
0
100
AcDbPolyline
90
4
70
1
43
0.0
10
-7.675238760477523
20
0.1499936499873
10
-7.1252387604775222
20
0.1499936499873
10
-7.1252387604775222
20
0.34998094996189999
10
-7.675238760477523
20
0.34998094996189999
0
LWPOLYLINE
5
183
100
AcDbEntity
8
0
100
AcDbPolyline
90
4
70
1
43
0.0
10
-7.675238760477523
20
-0.35000635001270014
10
-7.1252387604775222
20
-0.35000635001270014
10
-7.1252387604775222
20
-0.15001905003810012
10
-7.675238760477523
20
-0.15001905003810012
0
ENDSEC
0
SECTION
2
OBJECTS
0
DICTIONARY
5
C
100
AcDbDictionary
3
ACAD_GROUP
350
D
3
ACAD_MLINESTYLE
350
17
0
DICTIONARY
5
D
100
AcDbDictionary
0
DICTIONARY
5
1A
330
C
100
AcDbDictionary
0
DICTIONARY
5
17
100
AcDbDictionary
0
ENDSEC
0
EOF
