0
SECTION
2
HEADER
9
$INSUNITS
70
4
9
$ACADVER
1
AC1014
9
$HANDSEED
5
FFFF
0
ENDSEC
0
SECTION
2
TABLES
0
TABLE
2
VPORT
5
8
100
AcDbSymbolTable
0
ENDTAB
0
TABLE
2
LTYPE
5
5
100
AcDbSymbolTable
0
LTYPE
5
14
100
AcDbSymbolTableRecord
100
AcDbLinetypeTableRecord
2
BYBLOCK
70
0
0
LTYPE
5
15
100
AcDbSymbolTableRecord
100
AcDbLinetypeTableRecord
2
BYLAYER
70
0
0
LTYPE
5
16
100
AcDbSymbolTableRecord
100
AcDbLinetypeTableRecord
2
DASHED
70
0
3
Dashed __ __ __ __ __ __ __ __ __ __ __ __ __ _
72
65
73
2
40
0.75
49
0.5
74
0
49
-0.25
74
0
0
ENDTAB
0
TABLE
2
LAYER
5
2
100
AcDbSymbolTable
70
2
0
LAYER
5
50
100
AcDbSymbolTableRecord
100
AcDbLayerTableRecord
2
0
70
0
62
7
6
CONTINUOUS
0
ENDTAB
0
TABLE
2
STYLE
5
3
100
AcDbSymbolTable
70
1
0
STYLE
5
11
100
AcDbSymbolTableRecord
100
AcDbTextStyleTableRecord
2
STANDARD
70
0
0
ENDTAB
0
TABLE
2
VIEW
5
6
100
AcDbSymbolTable
70
0
0
ENDTAB
0
TABLE
2
UCS
5
7
100
AcDbSymbolTable
70
0
0
ENDTAB
0
TABLE
2
APPID
5
9
100
AcDbSymbolTable
70
2
0
APPID
5
12
100
AcDbSymbolTableRecord
100
AcDbRegAppTableRecord
2
ACAD
70
0
0
ENDTAB
0
TABLE
2
DIMSTYLE
5
A
100
AcDbSymbolTable
70
1
0
ENDTAB
0
TABLE
2
BLOCK_RECORD
5
1
100
AcDbSymbolTable
70
1
0
BLOCK_RECORD
5
1F
100
AcDbSymbolTableRecord
100
AcDbBlockTableRecord
2
*MODEL_SPACE
0
BLOCK_RECORD
5
1B
100
AcDbSymbolTableRecord
100
AcDbBlockTableRecord
2
*PAPER_SPACE
0
ENDTAB
0
ENDSEC
0
SECTION
2
BLOCKS
0
BLOCK
5
20
100
AcDbEntity
100
AcDbBlockBegin
2
*MODEL_SPACE
0
ENDBLK
5
21
100
AcDbEntity
100
AcDbBlockEnd
0
BLOCK
5
1C
100
AcDbEntity
100
AcDbBlockBegin
2
*PAPER_SPACE
0
ENDBLK
5
1D
100
AcDbEntity
100
AcDbBlockEnd
0
ENDSEC
0
SECTION
2
ENTITIES
0
LWPOLYLINE
5
100
100
AcDbEntity
8
0
100
AcDbPolyline
90
28
70
1
43
0.0
10
-18.00538270931969
20
-111.3099904565096
42
0.4142135623730947
10
-16.00538270931969
20
-109.30999045650961
10
-16.00538270931969
20
-75.149990456510082
42
-0.41421356237313567
10
-14.005382709319409
20
-73.149990456510082
10
0.45427136487925956
20
-73.149990456510153
42
0.41421356237309503
10
2.4542713648792596
20
-71.149990456510153
10
2.4542713648792569
20
-37.149990556364358
42
0.41421356237309515
10
0.45427136487925501
20
-35.149990556364358
10
-13.545728635120728
20
-35.149990556364358
42
-0.41421356237309503
10
-15.545728635120728
20
-33.149990556364358
10
-15.545728635120728
20
1.8500095434898567
42
0.41421356237309481
10
-17.545728635120732
20
3.8500095434898549
10
-58.545728635120724
20
3.850009543489854
42
0.41421356237309503
10
-60.545728635120724
20
1.8500095434898522
10
-60.545728635120724
20
-33.149990712843206
42
-0.41421356237309503
10
-62.545728635120732
20
-35.149990712843213
10
-76.54572863512071
20
-35.149991087566221
42
0.41421356237309503
10
-78.545728635120724
20
-37.149990712843213
10
-78.545728635120724
20
-71.149990456510153
42
0.41421356237309503
10
-76.54572863512071
20
-73.149990456510153
10
-62.005382709319228
20
-73.149990456510267
42
-0.41421356237302481
10
-60.005382709298203
20
-75.149990456531768
10
-60.005382709319697
20
-101.14999045650961
42
0.41421356237309503
10
-58.005382709319697
20
-103.14999045650961
10
-40.00538270931969
20
-103.14999045650961
42
-0.41421356237309503
10
-38.00538270931969
20
-105.1499904565096
10
-38.00538270931969
20
-109.30999045650961
42
0.41421356237309503
10
-36.00538270931969
20
-111.3099904565096
0
LWPOLYLINE
5
101
100
AcDbEntity
8
0
100
AcDbPolyline
90
8
70
1
43
0.0
10
-58.045726679421236
20
-69.649990634603839
10
-58.045726679421236
20
-64.649990634603697
42
-0.41421356237309503
10
-55.545726679421236
20
-62.149990634603689
10
-44.545729689612934
20
-62.149990634603689
42
-0.41421356237309503
10
-42.045729689612934
20
-64.649990634603697
10
-42.045729689612926
20
-69.649991689095984
42
-0.41421356237309503
10
-44.545728635120739
20
-72.14999063460381
10
-55.545726679421264
20
-72.149990634603796
42
-0.41421356237309503
0
LWPOLYLINE
5
102
100
AcDbEntity
8
0
100
AcDbPolyline
90
8
70
1
43
0.0
10
-20.545728635120739
20
-72.149990634603839
10
-31.545732151480269
20
-72.149990634603839
42
-0.41421370950424996
10
-34.045732151479967
20
-69.649989378760935
10
-34.045729639794168
20
-64.649989378760793
42
-0.41421341524195537
10
-31.54572963979448
20
-62.149990634603689
10
-20.545728941182432
20
-62.149990634603689
42
-0.41421354444441583
10
-18.045728941182439
20
-64.649990481572843
10
-18.045728635120742
20
-69.649990481572985
42
-0.41421358030177446
0
CIRCLE
5
103
100
AcDbEntity
8
0
100
AcDbCircle
10
-31.228838528056933
20
-18.83540208873541
30
5.9604676749813734e-09
40
0.49999999999999822
210
7.1583500341673864e-33
220
2.0696496600371258e-70
230
1
0
CIRCLE
5
104
100
AcDbEntity
8
0
100
AcDbCircle
10
-44.941728492136747
20
-46.767990414068706
30
5.9604676749813734e-09
40
0.49999999999999822
210
7.1583500341673864e-33
220
2.0696496600371258e-70
230
1
0
CIRCLE
5
105
100
AcDbEntity
8
0
100
AcDbCircle
10
-31.160000071533354
20
-49.531990975856942
30
5.9604676749813734e-09
40
0.50000000000000266
210
7.1583500341673864e-33
220
2.0696496600371258e-70
230
1
0
CIRCLE
5
106
100
AcDbEntity
8
0
100
AcDbCircle
10
-44.869879422137942
20
-0.16136246465651594
30
5.9604676749813734e-09
40
0.49999999999999822
210
7.1583500341673864e-33
220
2.0696496600371258e-70
230
1
0
CIRCLE
5
107
100
AcDbEntity
8
0
100
AcDbCircle
10
-26.278838528056909
20
-18.83540208873541
30
5.9604676749813734e-09
40
0.49999999999999822
210
7.1583500341673864e-33
220
2.0696496600371258e-70
230
1
0
CIRCLE
5
108
100
AcDbEntity
8
0
100
AcDbCircle
10
-44.941728492136747
20
-50.267990414068692
30
5.9604676749813734e-09
40
0.49999999999999822
210
7.1583500341673864e-33
220
2.0696496600371258e-70
230
1
0
CIRCLE
5
109
100
AcDbEntity
8
0
100
AcDbCircle
10
-31.16000007153335
20
-46.031990975856949
30
5.9604676749813734e-09
40
0.50000000000000266
210
7.1583500341673864e-33
220
2.0696496600371258e-70
230
1
0
CIRCLE
5
110
100
AcDbEntity
8
0
100
AcDbCircle
10
-49.819879422137959
20
-0.16136246465651594
30
5.9604676749813734e-09
40
0.49999999999999822
210
7.1583500341673864e-33
220
2.0696496600371258e-70
230
1
0
CIRCLE
5
111
100
AcDbEntity
8
0
100
AcDbCircle
10
-41.05487688213298
20
-12.485351542634486
30
5.9604676749813734e-09
40
0.49999999999999822
210
7.1583500341673864e-33
220
2.0696496600371258e-70
230
1
0
CIRCLE
5
112
100
AcDbEntity
8
0
100
AcDbCircle
10
-35.036850974080927
20
-9.061367290665407
30
5.9604676749813734e-09
40
0.50000000000000266
210
7.1583500341673864e-33
220
2.0696496600371258e-70
230
1
0
CIRCLE
5
113
100
AcDbEntity
8
0
100
AcDbCircle
10
-35.03685097408092
20
-1.441367290665402
30
5.9604676749813734e-09
40
0.50000000000000266
210
7.1583500341673864e-33
220
2.0696496600371258e-70
230
1
0
CIRCLE
5
114
100
AcDbEntity
8
0
100
AcDbCircle
10
-35.036850974080927
20
-11.60136729066541
30
5.9604676749813734e-09
40
0.50000000000000266
210
7.1583500341673864e-33
220
2.0696496600371258e-70
230
1
0
CIRCLE
5
115
100
AcDbEntity
8
0
100
AcDbCircle
10
-41.054876882132987
20
-15.025351542634491
30
5.9604676749813734e-09
40
0.49999999999999822
210
7.1583500341673864e-33
220
2.0696496600371258e-70
230
1
0
CIRCLE
5
116
100
AcDbEntity
8
0
100
AcDbCircle
10
-41.05487688213298
20
-9.9453515426344925
30
5.9604676749813734e-09
40
0.49999999999999822
210
7.1583500341673864e-33
220
2.0696496600371258e-70
230
1
0
CIRCLE
5
117
100
AcDbEntity
8
0
100
AcDbCircle
10
-35.03685097408092
20
-6.5213672906654017
30
5.9604676749813734e-09
40
0.50000000000000266
210
7.1583500341673864e-33
220
2.0696496600371258e-70
230
1
0
CIRCLE
5
118
100
AcDbEntity
8
0
100
AcDbCircle
10
-35.03685097408092
20
-3.9813672906654061
30
5.9604676749813734e-09
40
0.50000000000000266
210
7.1583500341673864e-33
220
2.0696496600371258e-70
230
1
0
CIRCLE
5
119
100
AcDbEntity
8
0
100
AcDbCircle
10
-41.054876882132973
20
-7.4053515426344871
30
5.9604676749813734e-09
40
0.49999999999999822
210
7.1583500341673864e-33
220
2.0696496600371258e-70
230
1
0
CIRCLE
5
120
100
AcDbEntity
8
0
100
AcDbCircle
10
-41.054876882132987
20
-17.565351542634495
30
5.9604676749813734e-09
40
0.49999999999999822
210
7.1583500341673864e-33
220
2.0696496600371258e-70
230
1
0
CIRCLE
5
121
100
AcDbEntity
8
0
100
AcDbCircle
10
-38.045728635120724
20
-28.149990456510146
30
5.9604676749813734e-09
40
1.7499999999999982
210
-1.2866661192622656e-40
220
2.0696496600371258e-70
230
1
0
CIRCLE
5
122
100
AcDbEntity
8
0
100
AcDbCircle
10
-2.5457286351207409
20
-68.149990456510153
30
5.9604676749813734e-09
40
2.2500000000000009
210
-1.2866661192622656e-40
220
2.0696496600371258e-70
230
1
0
CIRCLE
5
123
100
AcDbEntity
8
0
100
AcDbCircle
10
-73.545728635120724
20
-68.149990456510153
30
5.9604676749813734e-09
40
2.2499999999999964
210
-1.2866661192622656e-40
220
2.0696496600371258e-70
230
1
0
CIRCLE
5
124
100
AcDbEntity
8
0
100
AcDbCircle
10
-48.238728492136261
20
-37.984990414067681
30
5.9604676749813734e-09
40
0.50000000000000266
210
-1.2866661192622656e-40
220
2.0696496600371258e-70
230
1
0
CIRCLE
5
125
100
AcDbEntity
8
0
100
AcDbCircle
10
-58.398728492136271
20
-37.984990414067667
30
5.9604676749813734e-09
40
0.50000000000000266
210
-1.2866661192622656e-40
220
2.0696496600371258e-70
230
1
0
CIRCLE
5
126
100
AcDbEntity
8
0
100
AcDbCircle
10
-27.853000071533401
20
-58.304990975856967
30
5.9604676749813734e-09
40
0.50000000000000266
210
-1.2866661192622656e-40
220
2.0696496600371258e-70
230
1
0
CIRCLE
5
127
100
AcDbEntity
8
0
100
AcDbCircle
10
-17.693000071533348
20
-58.304990975856967
30
5.9604676749813734e-09
40
0.50000000000000044
210
-1.2866661192622656e-40
220
2.0696496600371258e-70
230
1
0
CIRCLE
5
128
100
AcDbEntity
8
0
100
AcDbCircle
10
-19.995728635120685
20
-83.604990634603666
30
5.9604676749813734e-09
40
0.50000000000000266
210
-1.2866661192622656e-40
220
2.0696496600371258e-70
230
1
0
CIRCLE
5
129
100
AcDbEntity
8
0
100
AcDbCircle
10
-19.995728635120727
20
-91.224990634603671
30
5.9604676749813734e-09
40
0.50000000000000266
210
-1.2866661192622656e-40
220
2.0696496600371258e-70
230
1
0
CIRCLE
5
130
100
AcDbEntity
8
0
100
AcDbCircle
10
-40.855728635120762
20
-98.844990634603704
30
5.9604676749813734e-09
40
0.49999999999999822
210
-1.2866661192622656e-40
220
2.0696496600371258e-70
230
1
0
CIRCLE
5
131
100
AcDbEntity
8
0
100
AcDbCircle
10
-35.235728635120729
20
-93.764990634603691
30
5.9604676749813734e-09
40
0.49999999999999822
210
-1.2866661192622656e-40
220
2.0696496600371258e-70
230
1
0
CIRCLE
5
132
100
AcDbEntity
8
0
100
AcDbCircle
10
-40.855728635120705
20
-88.684990634603693
30
5.9604676749813734e-09
40
0.50000000000000711
210
-1.2866661192622656e-40
220
2.0696496600371258e-70
230
1
0
CIRCLE
5
133
100
AcDbEntity
8
0
100
AcDbCircle
10
-40.855728635120691
20
-83.604990634603695
30
5.9604676749813734e-09
40
0.50000000000000711
210
-1.2866661192622656e-40
220
2.0696496600371258e-70
230
1
0
CIRCLE
5
134
100
AcDbEntity
8
0
100
AcDbCircle
10
-56.095728635120715
20
-91.224990634603699
30
5.9604676749813734e-09
40
0.50000000000000711
210
-1.2866661192622656e-40
220
2.0696496600371258e-70
230
1
0
CIRCLE
5
135
100
AcDbEntity
8
0
100
AcDbCircle
10
-56.09572863512075
20
-98.844990634603704
30
5.9604676749813734e-09
40
0.49999999999999822
210
-1.2866661192622656e-40
220
2.0696496600371258e-70
230
1
0
CIRCLE
5
136
100
AcDbEntity
8
0
100
AcDbCircle
10
-56.0957286351207
20
-88.684990634603693
30
5.9604676749813734e-09
40
0.50000000000000711
210
-1.2866661192622656e-40
220
2.0696496600371258e-70
230
1
0
CIRCLE
5
137
100
AcDbEntity
8
0
100
AcDbCircle
10
-35.235728635120665
20
-83.604990634603666
30
5.9604676749813734e-09
40
0.50000000000000266
210
-1.2866661192622656e-40
220
2.0696496600371258e-70
230
1
0
CIRCLE
5
138
100
AcDbEntity
8
0
100
AcDbCircle
10
-35.235728635120694
20
-88.684990634603651
30
5.9604676749813734e-09
40
0.50000000000000266
210
-1.2866661192622656e-40
220
2.0696496600371258e-70
230
1
0
CIRCLE
5
139
100
AcDbEntity
8
0
100
AcDbCircle
10
-35.235728635120736
20
-96.304990634603655
30
5.9604676749813734e-09
40
0.49999999999999822
210
-1.2866661192622656e-40
220
2.0696496600371258e-70
230
1
0
CIRCLE
5
140
100
AcDbEntity
8
0
100
AcDbCircle
10
-35.235728635120751
20
-98.844990634603676
30
5.9604676749813734e-09
40
0.49999999999999822
210
-1.2866661192622656e-40
220
2.0696496600371258e-70
230
1
0
CIRCLE
5
141
100
AcDbEntity
8
0
100
AcDbCircle
10
-19.995728635120745
20
-93.764990634603691
30
5.9604676749813734e-09
40
0.49999999999999822
210
-1.2866661192622656e-40
220
2.0696496600371258e-70
230
1
0
CIRCLE
5
142
100
AcDbEntity
8
0
100
AcDbCircle
10
-10.073000071533343
20
-58.304990975856981
30
5.9604676749813734e-09
40
0.50000000000000044
210
-1.2866661192622656e-40
220
2.0696496600371258e-70
230
1
0
CIRCLE
5
143
100
AcDbEntity
8
0
100
AcDbCircle
10
-20.23300007153335
20
-58.304990975856967
30
5.9604676749813734e-09
40
0.50000000000000266
210
-1.2866661192622656e-40
220
2.0696496600371258e-70
230
1
0
CIRCLE
5
144
100
AcDbEntity
8
0
100
AcDbCircle
10
-66.018728492136319
20
-37.984990414067674
30
5.9604676749813734e-09
40
0.49999999999999822
210
-1.2866661192622656e-40
220
2.0696496600371258e-70
230
1
0
CIRCLE
5
145
100
AcDbEntity
8
0
100
AcDbCircle
10
-55.858728492136265
20
-37.984990414067667
30
5.9604676749813734e-09
40
0.50000000000000266
210
-1.2866661192622656e-40
220
2.0696496600371258e-70
230
1
0
CIRCLE
5
146
100
AcDbEntity
8
0
100
AcDbCircle
10
-50.778728492136267
20
-37.984990414067674
30
5.9604676749813734e-09
40
0.50000000000000266
210
-1.2866661192622656e-40
220
2.0696496600371258e-70
230
1
0
CIRCLE
5
147
100
AcDbEntity
8
0
100
AcDbCircle
10
-60.938728492136313
20
-37.984990414067681
30
5.9604676749813734e-09
40
0.49999999999999822
210
-1.2866661192622656e-40
220
2.0696496600371258e-70
230
1
0
CIRCLE
5
148
100
AcDbEntity
8
0
100
AcDbCircle
10
-25.313000071533395
20
-58.304990975856967
30
5.9604676749813734e-09
40
0.50000000000000266
210
-1.2866661192622656e-40
220
2.0696496600371258e-70
230
1
0
CIRCLE
5
149
100
AcDbEntity
8
0
100
AcDbCircle
10
-15.153000071533341
20
-58.304990975856967
30
5.9604676749813734e-09
40
0.50000000000000044
210
-1.2866661192622656e-40
220
2.0696496600371258e-70
230
1
0
CIRCLE
5
150
100
AcDbEntity
8
0
100
AcDbCircle
10
-19.995728635120699
20
-86.144990634603687
30
5.9604676749813734e-09
40
0.49999999999999822
210
-1.2866661192622656e-40
220
2.0696496600371258e-70
230
1
0
CIRCLE
5
151
100
AcDbEntity
8
0
100
AcDbCircle
10
-19.995728635120756
20
-96.304990634603655
30
5.9604676749813734e-09
40
0.49999999999999822
210
-1.2866661192622656e-40
220
2.0696496600371258e-70
230
1
0
CIRCLE
5
152
100
AcDbEntity
8
0
100
AcDbCircle
10
-40.855728635120741
20
-93.76499063460372
30
5.9604676749813734e-09
40
0.49999999999999822
210
-1.2866661192622656e-40
220
2.0696496600371258e-70
230
1
0
CIRCLE
5
153
100
AcDbEntity
8
0
100
AcDbCircle
10
-40.855728635120727
20
-91.224990634603699
30
5.9604676749813734e-09
40
0.50000000000000711
210
-1.2866661192622656e-40
220
2.0696496600371258e-70
230
1
0
CIRCLE
5
154
100
AcDbEntity
8
0
100
AcDbCircle
10
-40.855728635120698
20
-86.144990634603715
30
5.9604676749813734e-09
40
0.49999999999999822
210
-1.2866661192622656e-40
220
2.0696496600371258e-70
230
1
0
CIRCLE
5
155
100
AcDbEntity
8
0
100
AcDbCircle
10
-56.095728635120672
20
-83.604990634603695
30
5.9604676749813734e-09
40
0.50000000000000711
210
-1.2866661192622656e-40
220
2.0696496600371258e-70
230
1
0
CIRCLE
5
156
100
AcDbEntity
8
0
100
AcDbCircle
10
-56.095728635120736
20
-93.76499063460372
30
5.9604676749813734e-09
40
0.49999999999999822
210
-1.2866661192622656e-40
220
2.0696496600371258e-70
230
1
0
CIRCLE
5
157
100
AcDbEntity
8
0
100
AcDbCircle
10
-56.095728635120743
20
-96.304990634603698
30
5.9604676749813734e-09
40
0.49999999999999822
210
-1.2866661192622656e-40
220
2.0696496600371258e-70
230
1
0
CIRCLE
5
158
100
AcDbEntity
8
0
100
AcDbCircle
10
-56.095728635120679
20
-86.144990634603715
30
5.9604676749813734e-09
40
0.49999999999999822
210
-1.2866661192622656e-40
220
2.0696496600371258e-70
230
1
0
CIRCLE
5
159
100
AcDbEntity
8
0
100
AcDbCircle
10
-35.235728635120687
20
-86.144990634603687
30
5.9604676749813734e-09
40
0.49999999999999822
210
-1.2866661192622656e-40
220
2.0696496600371258e-70
230
1
0
CIRCLE
5
160
100
AcDbEntity
8
0
100
AcDbCircle
10
-35.235728635120715
20
-91.224990634603671
30
5.9604676749813734e-09
40
0.50000000000000266
210
-1.2866661192622656e-40
220
2.0696496600371258e-70
230
1
0
CIRCLE
5
161
100
AcDbEntity
8
0
100
AcDbCircle
10
-40.855728635120762
20
-96.304990634603698
30
5.9604676749813734e-09
40
0.49999999999999822
210
-1.2866661192622656e-40
220
2.0696496600371258e-70
230
1
0
CIRCLE
5
162
100
AcDbEntity
8
0
100
AcDbCircle
10
-19.995728635120766
20
-98.844990634603676
30
5.9604676749813734e-09
40
0.49999999999999822
210
-1.2866661192622656e-40
220
2.0696496600371258e-70
230
1
0
CIRCLE
5
163
100
AcDbEntity
8
0
100
AcDbCircle
10
-19.995728635120713
20
-88.684990634603651
30
5.9604676749813734e-09
40
0.50000000000000266
210
-1.2866661192622656e-40
220
2.0696496600371258e-70
230
1
0
CIRCLE
5
164
100
AcDbEntity
8
0
100
AcDbCircle
10
-12.613000071533346
20
-58.304990975856967
30
5.9604676749813734e-09
40
0.50000000000000044
210
-1.2866661192622656e-40
220
2.0696496600371258e-70
230
1
0
CIRCLE
5
165
100
AcDbEntity
8
0
100
AcDbCircle
10
-22.773000071533392
20
-58.304990975856981
30
5.9604676749813734e-09
40
0.50000000000000266
210
-1.2866661192622656e-40
220
2.0696496600371258e-70
230
1
0
CIRCLE
5
166
100
AcDbEntity
8
0
100
AcDbCircle
10
-63.478728492136312
20
-37.984990414067674
30
5.9604676749813734e-09
40
0.49999999999999822
210
-1.2866661192622656e-40
220
2.0696496600371258e-70
230
1
0
CIRCLE
5
167
100
AcDbEntity
8
0
100
AcDbCircle
10
-53.318728492136259
20
-37.984990414067674
30
5.9604676749813734e-09
40
0.50000000000000266
210
-1.2866661192622656e-40
220
2.0696496600371258e-70
230
1
0
ENDSEC
0
SECTION
2
OBJECTS
0
DICTIONARY
5
C
100
AcDbDictionary
3
ACAD_GROUP
350
D
3
ACAD_MLINESTYLE
350
17
0
DICTIONARY
5
D
100
AcDbDictionary
0
DICTIONARY
5
1A
330
C
100
AcDbDictionary
0
DICTIONARY
5
17
100
AcDbDictionary
0
ENDSEC
0
EOF
